<svg width="75" height="73" viewBox="0 0 75 73" fill="none" xmlns="http://www.w3.org/2000/svg">
<path d="M53.125 10.5783C53.125 10.1775 52.9604 9.79318 52.6674 9.50979C52.3743 9.2264 51.9769 9.06719 51.5625 9.06719H43.75C39.816 8.87766 35.9644 10.2017 33.0366 12.7501C30.1089 15.2984 28.3431 18.8639 28.125 22.6674V30.8275H20.3125C19.8981 30.8275 19.5007 30.9867 19.2076 31.2701C18.9146 31.5535 18.75 31.9379 18.75 32.3387V40.1966C18.75 40.5973 18.9146 40.9817 19.2076 41.2651C19.5007 41.5485 19.8981 41.7077 20.3125 41.7077H28.125V61.9569C28.125 62.3577 28.2896 62.742 28.5826 63.0254C28.8757 63.3088 29.2731 63.468 29.6875 63.468H39.0625C39.4769 63.468 39.8743 63.3088 40.1674 63.0254C40.4604 62.742 40.625 62.3577 40.625 61.9569V41.7077H48.8125C49.16 41.7125 49.4992 41.6052 49.7765 41.4027C50.0538 41.2001 50.2534 40.914 50.3438 40.5895L52.5938 32.7316C52.6559 32.5083 52.6643 32.2742 52.6182 32.0473C52.5721 31.8204 52.4728 31.6068 52.3279 31.4228C52.183 31.2389 51.9963 31.0896 51.7824 30.9864C51.5684 30.8832 51.3328 30.8288 51.0938 30.8275H40.625V22.6674C40.7027 21.9193 41.066 21.2261 41.6438 20.7232C42.2217 20.2202 42.9726 19.9436 43.75 19.9474H51.5625C51.9769 19.9474 52.3743 19.7881 52.6674 19.5048C52.9604 19.2214 53.125 18.837 53.125 18.4362V10.5783Z" fill="#BFBFBF"/>
</svg>
