<svg width="88" height="88" viewBox="0 0 88 88" fill="none" xmlns="http://www.w3.org/2000/svg">
<path opacity="0.3" d="M44 56.4667L30.2133 64.79L33.88 49.0967L21.7067 38.5367L37.7667 37.1434L44 22.3667L50.27 37.18L66.33 38.5734L54.1567 49.1334L57.8233 64.8267L44 56.4667Z" fill="#BFBFBF"/>
<path d="M80.6667 33.88L54.3034 31.6067L44 7.33337L33.6967 31.6434L7.33337 33.88L27.3534 51.2234L21.34 77L44 63.3234L66.66 77L60.6834 51.2234L80.6667 33.88ZM44 56.4667L30.2134 64.79L33.88 49.0967L21.7067 38.5367L37.7667 37.1434L44 22.3667L50.27 37.18L66.33 38.5734L54.1567 49.1334L57.8234 64.8267L44 56.4667Z" fill="#BFBFBF"/>
</svg>
