<svg width="75" height="75" viewBox="0 0 75 75" fill="none" xmlns="http://www.w3.org/2000/svg">
<path d="M25.2499 62.499C29.8708 62.6536 34.4759 61.8804 38.7929 60.2249C43.1098 58.5695 47.0512 56.0655 50.384 52.8609C53.7167 49.6563 56.3733 45.8162 58.1967 41.5674C60.0201 37.3186 60.9733 32.7474 60.9999 28.124C63.1176 25.5034 64.69 22.486 65.6249 19.249C65.6947 18.9933 65.6891 18.7228 65.6087 18.4702C65.5283 18.2176 65.3766 17.9936 65.1719 17.8251C64.9672 17.6567 64.7181 17.5511 64.4548 17.521C64.1914 17.4908 63.9249 17.5375 63.6874 17.6553C62.5795 18.1886 61.3323 18.3608 60.1213 18.1478C58.9104 17.9347 57.7968 17.3471 56.9374 16.4678C55.8404 15.2664 54.5134 14.2975 53.035 13.6185C51.5567 12.9394 49.9571 12.564 48.331 12.5144C46.7049 12.4649 45.0854 12.7422 43.5685 13.3301C42.0516 13.9179 40.668 14.8042 39.4999 15.9365C37.9005 17.4854 36.729 19.4218 36.0993 21.5574C35.4696 23.6929 35.4031 25.9551 35.9062 28.124C25.4374 28.749 18.2499 23.7803 12.4999 16.9678C12.3272 16.7721 12.1012 16.631 11.8496 16.5617C11.598 16.4924 11.3317 16.4978 11.0831 16.5774C10.8346 16.6569 10.6145 16.8071 10.4499 17.0096C10.2853 17.2121 10.1832 17.4582 10.1562 17.7178C9.06076 23.7941 9.85094 30.0601 12.4206 35.6742C14.9902 41.2884 19.2163 45.9817 24.5312 49.124C20.9675 53.211 15.9631 55.7636 10.5624 56.249C10.2731 56.297 10.006 56.4342 9.79851 56.6415C9.59104 56.8488 9.45358 57.1158 9.40537 57.4051C9.35715 57.6944 9.40059 57.9916 9.52961 58.2549C9.65864 58.5183 9.86678 58.7348 10.1249 58.874C14.8234 61.222 19.9975 62.4621 25.2499 62.499Z" fill="#BFBFBF"/>
</svg>
